{"title":"Alexander 2004.Director's.Cut.1080p.BluRay.x264 . NVEE","uid":9247049,"size":4585825931,"categoryP":"video","categoryS":"hd___movies","magnet":"?xt=urn:btih:71c055c57970b225b94a628e2c87aa67b6cc3c2d&amp;dn=Alexander+2004.Director%27s.Cut.1080p.BluRay.x264+.+NVEE&amp;tr=udp%3A%2F%2Ftracker.openbittorrent.com%3A80&amp;tr=udp%3A%2F%2Fopen.demonii.com%3A1337&amp;tr=udp%3A%2F%2Ftracker.coppersurfer.tk%3A6969&amp;tr=udp%3A%2F%2Fexodus.desync.com%3A6969","seeders":14,"leechers":0,"uploader":".NVEE","files":9,"time":1385393752,"description":"FULL_INFOs\n\n\n99.99% --- SYNCED GUARANTEED \n\n&quot;Totally scrutinized / analyzed to be a verified torrent.&quot;\n___________________________________________\n\nSource : Blu-Ray ~ 1080p\n\nMy Media Player of Choice &quot;VLC Media Player via HDMI&quot;\n\nSpoken Language : English\n\nAudio : 6 ~ Channels Only\n\nDon't delete torrent link,... Please seed . NVEE\n_____________________________________\n\n\n &lt;a href=&quot;\nhttp://www.imdb.com/title/tt0346491/&quot; rel=&quot;nofollow&quot; target=&quot;_NEW&quot;&gt;\nhttp://www.imdb.com/title/tt0346491/&lt;/a&gt;\n\n\n\nSubs Info : MULTI_SUBS\n\n &lt;a href=&quot;\nhttp://www.subtitleseeker.com/0346491/Alexander/Subtitles/&quot; rel=&quot;nofollow&quot; target=&quot;_NEW&quot;&gt;\nhttp://www.subtitleseeker.com/0346491/Alexander/Subtitles/&lt;/a&gt;\n\n1135 Subtitles In 36 Languages Use Link Provided \n &lt;a href=&quot;\nhttp://www.subtitleseeker.com/0346491/Alexander/Subtitles/&quot; rel=&quot;nofollow&quot; target=&quot;_NEW&quot;&gt;\nhttp://www.subtitleseeker.com/0346491/Alexander/Subtitles/&lt;/a&gt;\n\n1135 Subtitles In 36 Languages Only @ SubtitleSeeker\n &lt;a href=&quot;\nhttp://www.subtitleseeker.com/0346491/Alexander/Subtitles/&quot; rel=&quot;nofollow&quot; target=&quot;_NEW&quot;&gt;\nhttp://www.subtitleseeker.com/0346491/Alexander/Subtitles/&lt;/a&gt;\n\n&amp; or @\n &lt;a href=&quot;\nhttp://subscene.com/subtitles/alexander&quot; rel=&quot;nofollow&quot; target=&quot;_NEW&quot;&gt;\nhttp://subscene.com/subtitles/alexander&lt;/a&gt;\n\nAll .srt subs can be turned On/Off\n\n\n &lt;a href=&quot;\nhttp://www.imdb.com/title/tt0346491/&quot; rel=&quot;nofollow&quot; target=&quot;_NEW&quot;&gt;\nhttp://www.imdb.com/title/tt0346491/&lt;/a&gt;\n\n\n\n\n---------------------------------------------------------------------------------\n\n\n\nGeneral Metadata\n\nComplete name : Alexander 2004.Director's.Cut.1080p.BluRay.x264 . NVEE.mp4\nFormat : MPEG-4\nFormat profile : Base Media\nCodec ID : isom\nFile size : 4.27 GiB\nDuration : 3h 33mn\nOverall bit rate : 2 860 Kbps\nEncoded date : UTC 2013-11-25 04:57:11\nTagged date : UTC 2013-11-25 04:57:11\n\n\nVideo\n\nID : 1\nFormat : AVC\nFormat/Info : Advanced Video Codec\nFormat profile : &lt;a class=&quot;__cf_email__&quot; href=&quot;/cdn-cgi/l/email-protection&quot; data-cfemail=&quot;c48cada3ac8488f0eaf4&quot;&gt;[email&amp;#160;protected]&lt;/a&gt;&lt;script cf-hash='f9e31' type=&quot;text/javascript&quot;&gt;\n/* &lt;![CDATA[ */!function(){try{var t=&quot;currentScript&quot;in document?document.currentScript:function(){for(var t=document.getElementsByTagName(&quot;script&quot;),e=t.length;e--;)if(t[e].getAttribute(&quot;cf-hash&quot;))return t[e]}();if(t&amp;&amp;t.previousSibling){var e,r,n,i,c=t.previousSibling,a=c.getAttribute(&quot;data-cfemail&quot;);if(a){for(e=&quot;&quot;,r=parseInt(a.substr(0,2),16),n=2;a.length-n;n+=2)i=parseInt(a.substr(n,2),16)^r,e+=String.fromCharCode(i);e=document.createTextNode(e),c.parentNode.replaceChild(e,c)}}}catch(u){}}();/* ]]&gt; */&lt;/script&gt;\nFormat settings, CABAC : Yes\nFormat settings, ReFrames : 3 frames\nCodec ID : avc1\nCodec ID/Info : Advanced Video Coding\nDuration : 3h 33mn\nBit rate : 2 346 Kbps\nMaximum bit rate : 14.9 Mbps\nWidth : 1 920 pixels\nHeight : 796 pixels\nDisplay aspect ratio : 2.40:1\nFrame rate mode : Constant\nFrame rate : 23.976 fps\nColor space : YUV\nChroma subsampling : 4:2:0\nBit depth : 8 bits\nScan type : Progressive\nBits/(Pixel*Frame) : 0.064\nStream size : 3.50 GiB (82%)\nTitle : Director's.Cut.1080p.BluRay.x264 .264#trackID=1:fps=&lt;a class=&quot;__cf_email__&quot; href=&quot;/cdn-cgi/l/email-protection&quot; data-cfemail=&quot;c3f1f0edfaf4f58384938280f3edf6edf2ee878695eeb1a6b5f7f1fbf0&quot;&gt;[email&amp;#160;protected]&lt;/a&gt;&lt;script cf-hash='f9e31' type=&quot;text/javascript&quot;&gt;\n/* &lt;![CDATA[ */!function(){try{var t=&quot;currentScript&quot;in document?document.currentScript:function(){for(var t=document.getElementsByTagName(&quot;script&quot;),e=t.length;e--;)if(t[e].getAttribute(&quot;cf-hash&quot;))return t[e]}();if(t&amp;&amp;t.previousSibling){var e,r,n,i,c=t.previousSibling,a=c.getAttribute(&quot;data-cfemail&quot;);if(a){for(e=&quot;&quot;,r=parseInt(a.substr(0,2),16),n=2;a.length-n;n+=2)i=parseInt(a.substr(n,2),16)^r,e+=String.fromCharCode(i);e=document.createTextNode(e),c.parentNode.replaceChild(e,c)}}}catch(u){}}();/* ]]&gt; */&lt;/script&gt;\nWriting library : x264 core 133 r2334 a3ac64b\nEncoded date : UTC 2013-11-25 04:57:11\nTagged date : UTC 2013-11-25 05:19:41\nColor primaries : BT.709\nTransfer characteristics : BT.709\nMatrix coefficients : BT.709\n\n\nAudio\n\nID : 2\nFormat : AC-3\nFormat/Info : Audio Coding 3\nMode extension : CM (complete main)\nFormat settings, Endianness : Big\nCodec ID : ac-3\nDuration : 3h 33mn\nBit rate mode : Constant\nBit rate : 512 Kbps\nChannel(s) : 6 channels\nChannel positions : Front: L C R, Side: L R, LFE\nSampling rate : 48.0 KHz\nBit depth : 16 bits\nCompression mode : Lossy\nStream size : 782 MiB (18%)\nTitle : Director's.Cut.1080p.BluRay.x264 . NVEE - [1] English_audio.ac3#trackID=1:lang=&lt;a class=&quot;__cf_email__&quot; href=&quot;/cdn-cgi/l/email-protection&quot; data-cfemail=&quot;e2878ca2a5b2a3a1d2ccd7ccd3cfa6a7b4cf908794d6d0dad1&quot;&gt;[email&amp;#160;protected]&lt;/a&gt;&lt;script cf-hash='f9e31' type=&quot;text/javascript&quot;&gt;\n/* &lt;![CDATA[ */!function(){try{var t=&quot;currentScript&quot;in document?document.currentScript:function(){for(var t=document.getElementsByTagName(&quot;script&quot;),e=t.length;e--;)if(t[e].getAttribute(&quot;cf-hash&quot;))return t[e]}();if(t&amp;&amp;t.previousSibling){var e,r,n,i,c=t.previousSibling,a=c.getAttribute(&quot;data-cfemail&quot;);if(a){for(e=&quot;&quot;,r=parseInt(a.substr(0,2),16),n=2;a.length-n;n+=2)i=parseInt(a.substr(n,2),16)^r,e+=String.fromCharCode(i);e=document.createTextNode(e),c.parentNode.replaceChild(e,c)}}}catch(u){}}();/* ]]&gt; */&lt;/script&gt;\nLanguage : English\nEncoded date : UTC 2013-11-25 05:17:04\nTagged date : UTC 2013-11-25 05:19:41\n\n\nSynopsis\n\nThe film is based on the life of Alexander the Great, King of Macedonia, who conquered Asia Minor, Egypt, Persia and part of Ancient India. Shown are some of the key moments of Alexander's youth, his invasion of the mighty Persian Empire and his death. It also outlines his early life, including his difficult relationship with his father Philip II of Macedonia, his strained feeling towards his mother Olympias, the unification of the Greek city-states and the two Greek Kingdoms (Macedonia and Epirus) under the Hellenic League, and the conquest of the Persian Empire in 331 BC. It also details his plans to reform his empire and the attempts he made to reach the end of the then known world.\nThe story begins 40 years after 323 BC, around 283 BC, with Ptolemy I Soter, who narrates throughout the film. We see Alexander's daily life and the strained relationship between his parents. Alexander grows up with his mother Olympias and his tutor Aristotle, where he finds interest in love, honour, music, exploration, poetry and military combat. His relationship with his father is destroyed when Philip marries Attalus's niece, Eurydice.\nAfter Philip is assassinated, Alexander becomes king of Macedonia. Ptolemy briefly mentions Alexander's punitive campaign in which he razes Thebes and burns Persepolis, then gives an overview of Alexander's west-Persian campaign, including his declaration as the son of Zeus by the Oracle of Amun at Siwa Oasis, his great battle against the Persian Emperor Darius III in the Battle of Gaugamela and his eight-year campaign across Asia.\nAlso shown are Alexander's private relationships with his childhood friend Hephaestion and later his wife Roxana. Hephaestion compares Alexander to Achilles, to which Alexander replies that, if he is Achilles, Hephaestion must be his Patroclus (Achilles' best friend and his lover). When Hephaestion mentions that Patroclus died first, Alexander pledges that, if Hephaestion should die first, he will follow him into the afterlife. Hephaestion shows extensive jealousy when he sees Alexander with Roxana and deep sadness when he marries her, going so far as to attempt to keep her away from him after Alexander murders Cleitus the Black in India.\nAfter initial objection from his soldiers, Alexander convinces them to join him into his final and bloodiest battle, The Battle of Hydaspes. He is severely injured with an arrow but survives and is celebrated. Later on, Hephaestion succumbs to an unknown illness either by chance or perhaps poison, speculated in the movie to be Typhus carried with him from India. Alexander, full of grief and anger, distances himself from his wife, despite her pregnancy, believing that she has killed Hephaestion. He dies less than three months after Hephaestion, in the same manner, keeping his promise that he would follow him.\n\nEnjoy !","torrent":{"xt":"urn:btih:71c055c57970b225b94a628e2c87aa67b6cc3c2d","amp;dn":"Alexander+2004.Director%27s.Cut.1080p.BluRay.x264+.+NVEE","amp;tr":["udp%3A%2F%2Ftracker.openbittorrent.com%3A80","udp%3A%2F%2Fopen.demonii.com%3A1337","udp%3A%2F%2Ftracker.coppersurfer.tk%3A6969","udp%3A%2F%2Fexodus.desync.com%3A6969"],"infoHash":"71c055c57970b225b94a628e2c87aa67b6cc3c2d","infoHashBuffer":{"type":"Buffer","data":[113,192,85,197,121,112,178,37,185,74,98,142,44,135,170,103,182,204,60,45]},"announce":[],"urlList":[]}}